

<svg version="1.0" xmlns="http://www.w3.org/2000/svg"
 width="460.000000pt" height="175.000000pt" viewBox="0 0 460.000000 175.000000"
 preserveAspectRatio="xMidYMid meet">

<g transform="translate(0.000000,175.000000) scale(0.100000,-0.100000)"
fill="#000000" stroke="none">
<path d="M963 1708 c-12 -6 -29 -26 -39 -46 -14 -29 -14 -41 -5 -74 7 -21 19
-42 27 -45 21 -8 19 -170 -2 -170 -17 0 -19 17 -1 17 6 1 -2 7 -19 14 -61 27
-80 55 -83 121 -3 69 -21 106 -71 140 -42 29 -60 26 -163 -29 -135 -72 -266
-104 -445 -109 -61 -2 -115 -7 -119 -11 -13 -13 43 -54 105 -76 47 -17 58 -25
58 -43 -1 -19 8 -24 61 -37 35 -8 63 -20 63 -27 0 -21 41 -36 97 -34 41 1 53
-2 53 -14 0 -20 47 -38 78 -30 16 4 28 1 36 -10 6 -9 34 -18 64 -22 l53 -6
-26 -27 c-14 -15 -28 -43 -32 -64 -5 -32 -2 -40 30 -70 19 -18 56 -39 81 -46
25 -7 46 -15 46 -17 0 -3 -11 -18 -25 -35 -29 -34 -32 -75 -10 -118 18 -35 71
-74 87 -64 7 4 10 4 6 -1 -4 -4 0 -14 9 -20 15 -11 15 -13 -5 -24 -12 -6 -22
-19 -22 -27 0 -9 5 -12 12 -8 7 4 8 3 4 -5 -4 -6 -12 -9 -17 -5 -6 4 -9 -10
-7 -37 3 -38 8 -46 53 -77 28 -19 42 -26 32 -15 -16 18 -16 21 -2 26 9 4 15 1
15 -7 0 -9 13 -13 38 -12 l37 1 -4 43 c-1 23 -8 42 -13 42 -7 0 -7 4 0 13 6 7
9 22 7 32 -2 11 -4 23 -4 28 -1 4 -7 7 -14 7 -9 0 -11 -20 -9 -78 3 -68 2 -79
-12 -79 -10 0 -15 6 -12 14 3 7 0 12 -6 10 -7 -1 -12 4 -13 11 0 7 -5 16 -11
20 -6 4 -10 15 -9 24 2 9 -3 22 -10 28 -18 15 -8 40 16 40 25 0 24 6 -6 41
-15 18 -22 36 -18 46 4 9 8 12 10 6 2 -6 12 -10 21 -8 9 1 11 0 4 -2 -15 -5
-11 -25 5 -30 6 -2 13 5 16 16 4 15 -7 28 -49 55 -30 20 -58 36 -64 36 -11 0
-13 11 -4 35 8 20 60 48 100 52 l31 3 7 -80 c4 -44 5 -84 2 -89 -3 -5 5 -11
17 -13 17 -3 23 0 24 14 1 9 -3 21 -9 24 -6 4 -5 10 3 15 8 5 9 9 3 9 -8 0 -6
78 4 118 1 4 -13 12 -31 18 -17 7 -31 17 -29 24 3 11 0 11 -13 0 -13 -11 -13
-15 -3 -21 7 -5 8 -9 3 -9 -21 0 -54 31 -49 45 7 16 -35 30 -66 22 -11 -3 -20
-1 -20 4 0 5 -9 9 -20 9 -30 0 -60 36 -60 70 0 38 27 50 111 50 51 0 59 2 57
18 -2 9 -7 20 -13 24 -15 12 7 10 25 -2 11 -7 11 -10 2 -10 -7 0 -10 -5 -7
-11 11 -17 20 0 20 37 0 20 -6 36 -14 39 -21 8 -26 -2 -10 -22 11 -15 11 -16
-1 -5 -8 6 -27 12 -42 12 -17 0 -28 5 -28 14 0 15 27 30 48 27 6 -1 12 3 12 9
0 5 -7 10 -16 10 -12 0 -15 7 -12 24 3 15 0 27 -8 30 -8 3 -14 13 -14 22 0 14
3 13 19 -5 11 -12 23 -22 27 -21 5 1 10 -4 12 -12 2 -9 0 -8 -7 2 -7 9 -11 10
-11 3 0 -20 20 -26 26 -8 9 23 23 -1 16 -27 -4 -15 -7 -17 -14 -6 -6 8 -7 5
-2 -12 7 -25 31 -49 48 -50 6 0 1 -7 -10 -15 -19 -14 -19 -15 4 -21 21 -6 22
-11 22 -100 0 -91 1 -94 23 -94 l22 0 -2 245 c-1 134 -4 248 -6 252 -9 15 -4
138 6 151 8 9 7 12 -3 10 -7 -2 -15 3 -18 11 -3 8 0 11 7 7 6 -4 11 -2 11 3 0
14 -18 13 -47 -1z m-195 -66 c20 -30 11 -28 -19 4 -13 15 -18 25 -10 22 8 -2
21 -14 29 -26z m-98 -72 c0 -11 -74 -30 -113 -30 -30 0 -34 3 -30 20 10 39 37
48 93 31 27 -8 50 -18 50 -21z m24 -39 c5 -8 -73 -41 -96 -41 -20 0 -5 22 25
35 37 17 64 19 71 6z m-281 -43 c25 -10 27 -12 11 -21 -24 -13 -214 -20 -194
-7 13 9 13 11 0 19 -13 9 -13 11 0 15 70 24 109 23 183 -6z m335 11 c-3 -24
-39 -53 -75 -64 -39 -11 -29 30 14 60 46 31 65 32 61 4z m18 -86 c-31 -27 -46
-29 -46 -8 0 25 22 42 49 37 l25 -5 -28 -24z m59 -13 c4 -22 6 -43 6 -47 -1
-6 -35 -8 -56 -4 -2 1 4 17 15 37 11 19 18 39 15 45 -4 5 -2 9 4 9 5 0 12 -18
16 -40z m-321 21 c-17 -16 -107 -41 -143 -40 -20 0 -30 3 -23 6 6 2 9 9 6 15
-4 6 0 14 7 19 18 11 166 12 153 0z m11 -64 c-18 -28 -62 -44 -78 -28 -8 8 -7
11 3 11 7 0 10 3 6 7 -4 4 12 17 36 29 47 24 58 18 33 -19z m135 -12 c28 -30
20 -43 -32 -51 -30 -5 -36 -3 -41 15 -3 15 2 28 16 41 26 25 29 25 57 -5z
m306 -9 c7 -30 2 -57 -11 -56 -11 0 -14 80 -3 80 4 0 10 -11 14 -24z m-139
-28 c-3 -8 -6 -5 -6 6 -1 11 2 17 5 13 3 -3 4 -12 1 -19z m-50 -8 c21 0 23 -2
13 -14 -14 -17 -79 -41 -87 -32 -4 3 -1 18 6 32 8 17 17 24 27 20 9 -3 27 -6
41 -6z m130 -645 c0 -8 -4 -12 -9 -9 -5 3 -6 10 -3 15 9 13 12 11 12 -6z m20
-67 c-5 -3 -16 -4 -23 -1 -10 4 -10 8 -1 17 8 9 14 10 23 2 8 -8 8 -13 1 -18z"/>
<path d="M1275 1640 c-3 -5 -2 -10 4 -10 5 0 13 5 16 10 3 6 2 10 -4 10 -5 0
-13 -4 -16 -10z"/>
<path d="M1416 1581 l-49 -17 39 -12 c74 -22 84 -23 84 -13 0 6 -5 11 -11 11
-5 0 -7 4 -4 10 3 5 2 16 -2 23 -7 12 -16 11 -57 -2z"/>
<path d="M1370 1510 c45 -25 56 -25 56 0 0 17 -7 20 -46 20 l-45 -1 35 -19z"/>
<path d="M1300 1496 c0 -17 11 -30 38 -46 20 -12 34 -19 30 -15 -4 4 -3 16 2
26 8 14 4 21 -24 38 -42 27 -46 26 -46 -3z"/>
<path d="M1651 1491 c-62 -20 -59 -25 23 -40 85 -16 102 -15 86 4 -10 12 -9
15 6 16 11 0 14 3 7 5 -7 3 -9 12 -6 20 7 19 -46 17 -116 -5z"/>
<path d="M1260 1427 c0 -8 11 -19 25 -25 33 -15 42 -15 28 -1 -6 6 -9 18 -6
25 4 10 -3 14 -21 14 -15 0 -26 -6 -26 -13z"/>
<path d="M1535 1420 c7 -11 100 -40 129 -40 19 1 19 2 4 11 -10 5 -18 17 -18
24 0 12 -14 15 -61 15 -36 0 -58 -4 -54 -10z"/>
<path d="M1220 1382 c0 -33 27 -52 37 -25 7 17 -7 45 -25 51 -8 2 -12 -8 -12
-26z"/>
<path d="M1520 1377 c0 -17 37 -57 54 -57 35 0 26 34 -15 55 -34 18 -39 19
-39 2z"/>
<path d="M1160 1350 c-12 -22 -6 -40 12 -40 6 0 8 11 6 25 -3 13 0 26 6 29 7
3 7 5 -1 5 -7 1 -17 -8 -23 -19z"/>
<path d="M1390 1335 l-23 -24 29 -11 c16 -6 35 -13 42 -15 6 -2 12 0 12 5 0 6
-4 10 -9 10 -6 0 -9 9 -8 20 1 11 5 20 9 20 4 0 8 5 8 10 0 19 -37 10 -60 -15z"/>
<path d="M1100 1319 c0 -5 5 -7 10 -4 6 3 10 8 10 11 0 2 -4 4 -10 4 -5 0 -10
-5 -10 -11z"/>
<path d="M1090 1291 c0 -6 5 -13 10 -16 6 -3 10 1 10 9 0 9 -4 16 -10 16 -5 0
-10 -4 -10 -9z"/>
<path d="M1155 1290 c-9 -14 13 -40 34 -40 10 0 16 9 16 25 0 19 -5 25 -22 25
-12 0 -25 -5 -28 -10z"/>
<path d="M1266 1291 c-16 -6 -14 -10 17 -24 43 -21 48 -21 41 -2 -4 8 -1 15 6
15 6 0 8 5 5 10 -7 11 -41 12 -69 1z"/>
<path d="M1102 1253 c-6 -2 -10 -9 -6 -14 8 -14 21 -11 28 6 6 15 1 17 -22 8z"/>
<path d="M3184 1196 c-19 -15 -19 -15 1 -31 19 -16 19 -16 -4 -5 -18 10 -25 9
-32 -1 -18 -30 17 -109 43 -93 5 3 7 0 6 -8 -2 -8 8 -14 25 -16 20 -2 35 5 57
27 30 29 41 59 18 45 -9 -5 -9 -3 1 9 11 14 11 18 -3 23 -9 3 -16 14 -16 23 0
17 -37 41 -64 41 -6 0 -21 -6 -32 -14z m-4 -70 c-7 -7 -13 -7 -20 0 -6 6 -3
10 10 10 13 0 16 -4 10 -10z m16 -21 c-1 -8 -5 -17 -8 -21 -5 -4 -4 16 1 34 3
9 9 -1 7 -13z"/>
<path d="M2941 1169 l-44 -19 19 -23 c19 -22 19 -22 -2 -5 -13 11 -29 16 -45
12 -13 -3 -30 -6 -37 -6 -8 -1 -5 -9 8 -23 20 -21 21 -34 22 -234 0 -116 4
-211 8 -211 5 0 7 -9 5 -20 -2 -11 1 -22 6 -25 5 -4 7 -11 4 -16 -4 -5 -2 -9
3 -9 5 0 14 -11 20 -24 20 -44 150 -52 190 -12 13 12 14 19 4 28 -9 9 -15 9
-24 0 -18 -18 -32 -14 -17 5 12 15 12 16 -4 10 -11 -4 -16 -3 -12 3 3 6 17 7
31 4 15 -4 24 -2 24 6 0 6 -4 9 -9 6 -5 -4 -7 4 -4 16 4 22 4 23 -11 4 -9 -11
-16 -15 -16 -9 0 6 -11 11 -24 11 -30 0 -54 22 -48 42 5 13 3 13 -14 0 -18
-14 -18 -14 -1 6 16 19 17 44 16 263 -1 132 -2 241 -3 240 0 0 -21 -9 -45 -20z
m20 -37 c-6 -2 -9 -8 -5 -13 9 -16 -2 -10 -21 11 -17 19 -17 19 4 15 12 -2 21
1 22 8 0 7 3 6 6 -2 3 -8 1 -17 -6 -19z m29 -490 c0 -5 -7 -9 -15 -9 -8 0 -15
4 -15 9 0 4 7 8 15 8 8 0 15 -4 15 -8z m-73 -29 c-4 -3 -2 -12 4 -20 7 -8 8
-13 1 -13 -12 0 -23 26 -15 34 4 3 9 6 11 6 3 0 2 -3 -1 -7z"/>
<path d="M1415 1160 c-3 -5 0 -12 6 -16 8 -5 9 -3 4 6 -5 9 -4 11 4 6 9 -6 9
-11 0 -22 -6 -7 -8 -22 -4 -31 8 -21 6 -483 -2 -497 -3 -5 -2 -6 3 -3 5 3 10
-3 10 -13 0 -10 -5 -16 -10 -13 -5 4 -7 -1 -3 -9 3 -9 2 -19 -3 -24 -5 -5 8
-10 31 -11 21 0 39 4 39 9 0 7 5 6 14 -1 15 -13 32 1 21 18 -3 5 1 15 8 23 8
7 13 21 11 31 -1 9 2 15 7 11 5 -3 7 -10 4 -15 -4 -5 -1 -9 4 -9 7 0 11 25 11
61 0 41 -3 58 -11 53 -8 -4 -8 0 0 15 7 12 11 27 10 34 -4 35 1 37 91 37 79 0
90 -2 91 -17 4 -69 1 -202 -5 -211 -4 -7 -4 -12 0 -12 3 0 2 -6 -4 -12 -8 -10
9 -13 81 -15 51 -1 87 1 81 3 -13 5 -18 159 -15 426 1 102 -2 158 -8 163 -8 4
-6 12 4 22 21 20 11 30 -12 12 -9 -8 -14 -9 -10 -3 5 8 -12 12 -58 12 -58 0
-65 -2 -65 -20 0 -15 5 -18 16 -14 14 5 15 4 4 -8 -8 -11 -11 -49 -8 -131 2
-87 0 -112 -8 -100 -15 20 -43 19 -68 -4 -15 -13 -27 -16 -41 -11 -11 5 -14 9
-7 9 6 1 12 5 12 10 0 4 -16 7 -35 5 -19 -1 -35 2 -35 7 0 6 -6 7 -12 3 -10
-6 -9 -3 0 8 10 12 12 46 10 122 -2 60 1 106 6 106 5 0 6 3 2 8 -10 10 -155
12 -161 2z m445 -32 c0 -19 -16 -5 -17 14 -2 18 0 20 7 8 5 -8 10 -18 10 -22z
m-303 -50 c-3 -7 -5 -2 -5 12 0 14 2 19 5 13 2 -7 2 -19 0 -25z m-16 -152 c-6
-7 -9 -23 -6 -36 2 -12 1 -20 -2 -16 -12 12 -14 56 -3 56 6 0 8 5 4 12 -4 7
-3 8 5 4 8 -6 9 -12 2 -20z m336 9 c0 -8 -4 -15 -9 -15 -10 0 -11 14 -1 23 9
10 10 9 10 -8z m-22 -24 c3 -5 2 -12 -3 -15 -5 -3 -9 1 -9 9 0 17 3 19 12 6z
m-131 -27 c5 -14 4 -15 -9 -4 -17 14 -19 20 -6 20 5 0 12 -7 15 -16z m144 -55
c-10 -5 -15 -17 -12 -27 5 -14 4 -14 -4 -2 -12 16 2 40 22 40 6 0 3 -5 -6 -11z"/>
<path d="M4194 1101 c4 -5 0 -12 -6 -15 -7 -3 -1 -4 14 -1 15 3 30 0 34 -7 4
-6 3 -8 -4 -4 -16 10 -64 -15 -58 -31 3 -8 2 -12 -2 -9 -4 2 -19 -4 -32 -14
l-25 -18 29 -8 c22 -5 32 -3 41 9 7 9 16 13 20 9 4 -4 2 3 -4 16 -6 12 -8 22
-2 22 5 0 12 -7 15 -16 6 -14 9 -13 27 7 l20 24 -26 22 c-26 23 -51 31 -41 14z"/>
<path d="M920 1030 c14 -9 7 -14 -13 -11 -5 1 -6 -3 -2 -9 5 -8 11 -7 21 1 19
16 18 29 -3 29 -15 0 -16 -2 -3 -10z"/>
<path d="M2135 993 c-33 -7 -65 -25 -59 -34 3 -5 -1 -6 -9 -3 -8 3 -21 -2 -28
-10 -8 -9 -26 -29 -41 -46 -29 -31 -38 -57 -15 -44 7 5 6 1 -3 -10 -18 -23
-21 -38 -20 -105 0 -55 11 -83 24 -62 4 6 2 11 -5 11 -7 0 -10 3 -6 6 3 3 11
3 17 -1 8 -5 7 -12 -5 -24 -14 -17 -13 -20 12 -46 16 -16 21 -25 13 -20 -9 5
-8 0 4 -13 11 -12 24 -22 29 -22 6 0 19 -8 29 -17 11 -9 36 -18 56 -19 20 -1
42 -3 47 -4 21 -5 36 0 29 11 -4 8 -1 8 12 1 25 -13 91 18 118 55 11 14 14 23
7 19 -8 -5 -14 -1 -18 13 -6 24 -14 26 -31 9 -8 -8 -10 -5 -7 14 3 17 0 28
-10 32 -12 4 -15 -1 -13 -22 2 -20 -1 -26 -12 -23 -8 2 -37 5 -65 7 -73 6 -99
35 -100 114 -1 33 3 60 9 60 5 0 6 3 3 7 -4 3 1 12 11 20 11 9 11 12 2 7 -10
-5 -12 -4 -5 3 15 16 80 34 97 28 27 -11 37 -47 20 -75 -20 -32 -48 -60 -61
-60 -5 0 -12 -4 -15 -9 -3 -5 9 -7 27 -4 17 2 38 4 45 5 7 1 11 7 8 15 -3 7
-2 12 2 11 4 -1 15 2 25 7 9 4 23 3 30 -2 8 -7 18 -4 30 9 9 10 14 18 11 18
-3 0 2 7 10 16 18 18 22 49 5 38 -8 -4 -8 -1 -1 13 13 23 1 47 -41 87 -43 40
-97 53 -162 39z m18 -30 c-3 -7 -9 -13 -15 -13 -5 0 -6 5 -2 11 4 8 0 9 -15 4
-11 -3 -21 -2 -21 3 0 4 13 8 29 8 20 0 27 -4 24 -13z m-93 -68 c-7 -8 -16
-15 -21 -15 -5 0 -1 8 9 18 20 22 31 19 12 -3z m-53 -10 c0 -8 -4 -12 -9 -9
-5 3 -6 10 -3 15 9 13 12 11 12 -6z m-11 -60 c-3 -20 -26 -44 -26 -27 0 7 6
12 13 13 8 0 8 2 -2 6 -11 5 -11 7 0 14 18 11 18 11 15 -6z m236 -37 c-8 -8
-9 -4 -5 13 4 13 8 18 11 10 2 -7 -1 -18 -6 -23z m-22 -32 c0 -2 -7 -7 -16
-10 -8 -3 -12 -2 -9 4 6 10 25 14 25 6z m-223 -38 c-3 -8 -6 -5 -6 6 -1 11 2
17 5 13 3 -3 4 -12 1 -19z m129 -71 c3 -21 1 -21 -20 2 -17 19 -17 19 0 17 9
-2 18 -10 20 -19z m-60 -46 c-3 -5 1 -11 9 -15 8 -3 15 -10 15 -16 0 -6 -7 -4
-16 4 -8 9 -20 14 -25 11 -5 -4 -9 -2 -9 4 0 5 6 12 13 14 18 8 19 8 13 -2z"/>
<path d="M2498 995 c-3 -4 -14 -8 -25 -9 -11 -2 -17 -10 -16 -22 1 -11 0 -13
-3 -6 -9 19 -28 14 -52 -13 -20 -23 -20 -30 1 -26 5 1 6 -2 3 -7 -3 -5 4 -24
16 -42 17 -29 22 -32 32 -20 13 18 27 22 84 28 89 9 124 -33 126 -153 1 -33 5
-66 10 -74 6 -10 5 -12 -2 -7 -19 12 -14 -15 6 -30 15 -12 15 -13 0 -8 -17 6
-18 -2 -5 -43 12 -32 35 -36 88 -11 51 22 55 28 40 56 -5 9 -11 64 -14 122 -5
132 -12 158 -45 193 -40 42 -60 51 -80 35 -15 -11 -15 -11 -4 3 10 14 10 18
-5 24 -25 9 -147 17 -155 10z m109 -38 c-11 -4 -22 -5 -25 -2 -3 3 0 5 6 5 7
0 12 7 12 15 0 13 2 14 14 3 12 -11 11 -14 -7 -21z m138 -76 c3 -5 1 -12 -4
-15 -5 -3 -11 1 -15 9 -6 16 9 21 19 6z m23 -56 c-3 -3 -9 2 -12 12 -6 14 -5
15 5 6 7 -7 10 -15 7 -18z m-68 -61 c0 -8 5 -14 12 -14 6 0 9 -2 6 -5 -3 -3
-16 -1 -29 4 -13 5 -18 10 -10 10 8 1 11 7 7 17 -3 8 -2 12 4 9 6 -3 10 -13
10 -21z m-5 -95 c11 -16 1 -19 -13 -3 -7 8 -8 14 -3 14 5 0 13 -5 16 -11z m5
-99 c0 -5 -5 -10 -11 -10 -5 0 -7 5 -4 10 3 6 8 10 11 10 2 0 4 -4 4 -10z"/>
<path d="M3600 991 c0 -6 -7 -8 -17 -4 -11 4 -14 3 -9 -5 4 -7 3 -12 -1 -12
-5 0 -18 -19 -30 -43 l-20 -42 37 3 c29 3 42 -1 58 -18 11 -12 19 -29 17 -38
-1 -9 3 -23 9 -31 8 -12 8 -13 -2 -7 -10 6 -12 -11 -10 -81 2 -60 7 -87 15
-86 15 3 10 -26 -6 -36 -10 -6 -9 -10 3 -14 9 -4 15 -14 15 -24 -1 -17 -2 -17
-6 0 -6 21 -19 22 -27 1 -3 -9 -6 -17 -6 -18 0 -2 34 -4 76 -5 75 -2 76 -1 71
21 -4 13 -7 94 -7 181 -1 111 -5 157 -13 157 -7 0 -5 5 3 10 12 7 12 10 1 10
-7 0 -11 6 -8 14 6 16 -34 58 -61 64 -53 12 -82 13 -82 3z m128 -86 c-3 -3 -9
2 -12 12 -6 14 -5 15 5 6 7 -7 10 -15 7 -18z m-111 -1 c-3 -3 -12 -4 -19 -1
-8 3 -5 6 6 6 11 1 17 -2 13 -5z m93 -4 c0 -5 -2 -10 -4 -10 -3 0 -8 5 -11 10
-3 6 -1 10 4 10 6 0 11 -4 11 -10z m-33 -54 c0 -8 -6 -12 -15 -8 -12 4 -11 -1
3 -24 l17 -29 -21 25 c-19 23 -19 26 -4 38 21 15 20 15 20 -2z"/>
<path d="M4000 989 c0 -5 -6 -7 -12 -3 -9 5 -9 2 1 -9 17 -21 4 -22 -19 -2
-15 13 -19 13 -36 -3 -10 -10 -23 -19 -29 -19 -15 -2 -18 -21 -3 -26 7 -2 2
-2 -10 0 -15 2 -21 0 -17 -7 3 -5 2 -10 -3 -10 -22 0 -42 -69 -38 -129 4 -71
20 -98 44 -79 14 12 14 10 1 -10 -13 -22 -12 -25 15 -47 16 -13 35 -21 43 -18
8 3 13 0 11 -7 -2 -7 3 -15 11 -18 9 -3 11 0 6 8 -5 9 -4 11 4 6 6 -4 9 -11 6
-16 -3 -5 19 -9 50 -8 31 1 58 5 61 10 3 5 10 6 15 3 5 -4 12 1 15 9 3 9 12
16 19 16 6 0 20 10 31 22 12 13 13 18 4 13 -8 -5 0 6 18 23 19 18 30 36 26 43
-3 6 0 16 7 21 10 6 7 7 -10 3 -16 -5 -21 -4 -17 4 4 6 14 11 22 11 20 0 18
46 -3 54 -11 5 -24 -1 -36 -16 -19 -23 -19 -23 -2 6 14 23 15 28 3 24 -8 -4
-15 0 -15 7 0 10 6 11 24 2 30 -13 41 -2 20 21 -10 10 -15 21 -12 24 3 3 -1 8
-10 12 -11 4 -14 2 -9 -6 4 -7 3 -8 -5 -4 -6 4 -9 12 -6 17 4 5 -1 19 -9 31
-9 12 -16 19 -16 14 0 -5 -11 3 -25 18 -19 21 -33 26 -70 26 -25 0 -45 -5 -45
-11z m-84 -103 c2 -14 0 -16 -9 -7 -13 13 -31 15 -23 3 2 -4 -4 -9 -16 -9 -19
-2 -19 -1 3 18 26 22 41 21 45 -5z m157 -21 c40 -39 26 -138 -21 -156 -27 -10
-82 5 -82 23 0 5 -5 6 -10 3 -6 -4 -8 -10 -6 -14 3 -4 -2 -8 -10 -8 -9 0 -11
4 -5 10 5 5 7 16 4 25 -4 9 -2 13 4 9 8 -5 10 8 8 38 -1 32 3 50 17 65 22 24
80 27 101 5z m137 -11 c0 -2 -9 0 -20 6 -11 6 -20 13 -20 16 0 2 9 0 20 -6 11
-6 20 -13 20 -16z m-264 -23 c0 -20 -5 -27 -14 -23 -11 4 -11 6 0 13 10 7 10
9 0 9 -10 0 -10 3 0 15 7 8 14 14 14 15 1 0 1 -13 0 -29z m272 -46 c-3 -3 -9
2 -12 12 -6 14 -5 15 5 6 7 -7 10 -15 7 -18z m-284 -1 c3 -8 2 -12 -4 -9 -6 3
-10 10 -10 16 0 14 7 11 14 -7z m266 -54 c0 -5 -2 -10 -4 -10 -3 0 -8 5 -11
10 -3 6 -1 10 4 10 6 0 11 -4 11 -10z m-285 -65 c3 -21 1 -23 -16 -15 -16 9
-17 14 -7 30 14 23 20 19 23 -15z m160 -55 c3 -5 1 -10 -4 -10 -6 0 -11 5 -11
10 0 6 2 10 4 10 3 0 8 -4 11 -10z"/>
<path d="M3895 670 c-3 -5 -1 -10 4 -10 6 0 11 5 11 10 0 6 -2 10 -4 10 -3 0
-8 -4 -11 -10z"/>
<path d="M3270 980 c0 -5 5 -10 11 -10 5 0 7 5 4 10 -3 6 -8 10 -11 10 -2 0
-4 -4 -4 -10z"/>
<path d="M3464 975 c-10 -9 -14 -14 -7 -13 6 2 11 0 12 -4 1 -9 -3 -10 -24 -2
-12 5 -105 -23 -105 -31 0 -2 7 -16 15 -31 19 -37 21 -350 2 -357 -7 -3 25 -5
70 -5 73 0 82 2 75 17 -4 9 -7 25 -7 36 1 11 -4 26 -9 34 -8 11 -8 13 2 7 17
-10 17 165 0 182 -7 7 -8 12 -2 12 5 0 10 9 11 20 1 12 -3 18 -9 14 -6 -4 -6
2 1 15 11 20 11 105 0 116 -3 2 -14 -2 -25 -10z m-14 -422 c-11 -17 -11 -17
-6 0 3 10 7 26 7 35 1 15 2 15 6 0 2 -10 -1 -25 -7 -35z"/>
<path d="M3228 966 c-16 -5 -28 -14 -28 -19 0 -4 -4 -6 -10 -2 -5 3 -18 -3
-29 -14 -10 -10 -23 -16 -28 -12 -5 3 -2 -1 7 -9 21 -22 22 -30 21 -174 -1
-122 0 -128 16 -115 15 11 15 10 -1 -9 -14 -17 -16 -22 -5 -22 12 0 12 -2 0
-9 -8 -5 -16 -20 -18 -33 -2 -16 0 -19 6 -9 5 8 11 9 15 3 3 -5 33 -10 66 -10
44 0 58 4 52 12 -5 6 -10 101 -11 211 -1 218 -4 230 -53 211z m26 -24 c3 -5
-1 -9 -9 -9 -8 0 -12 4 -9 9 3 4 7 8 9 8 2 0 6 -4 9 -8z m-60 -48 c3 -8 2 -12
-4 -9 -6 3 -10 10 -10 16 0 14 7 11 14 -7z m-1 -334 c-3 -12 -8 -19 -11 -16
-5 6 5 36 12 36 2 0 2 -9 -1 -20z"/>
<path d="M1650 894 c0 -14 3 -14 15 -4 8 7 15 14 15 16 0 2 -7 4 -15 4 -8 0
-15 -7 -15 -16z"/>
<path d="M2523 789 c-13 -5 -23 -6 -23 -3 0 3 -14 -4 -30 -16 -17 -12 -27 -26
-24 -32 4 -7 2 -8 -4 -4 -15 9 -39 -30 -46 -74 -8 -51 10 -97 45 -114 19 -9
27 -10 23 -3 -5 8 -3 8 7 0 15 -15 73 -18 64 -3 -3 5 0 7 8 4 8 -3 20 2 27 11
8 10 9 15 2 15 -6 0 -9 7 -5 16 3 10 8 12 12 5 4 -6 12 -2 20 10 10 17 10 20
-1 14 -7 -3 -4 1 6 9 11 9 16 16 10 17 -5 0 -21 2 -37 4 -19 3 -25 0 -21 -8 3
-7 -12 8 -34 33 -32 36 -38 49 -30 63 6 12 16 16 30 11 13 -4 18 -2 14 4 -3 6
7 16 24 24 16 7 30 16 30 19 0 9 -41 8 -67 -2z m-32 -32 c-10 -9 -11 -8 -5 6
3 10 9 15 12 12 3 -3 0 -11 -7 -18z m25 -89 c4 -7 4 -10 -1 -6 -4 4 -14 3 -22
-4 -11 -8 -12 -7 -7 6 7 19 20 21 30 4z"/>
<path d="M2245 761 c-3 -5 0 -13 6 -17 7 -4 9 -3 5 4 -3 6 2 13 11 15 16 4 16
5 1 6 -9 0 -19 -3 -23 -8z"/>
<path d="M2497 725 c-8 -18 11 -31 25 -17 11 11 3 32 -12 32 -4 0 -10 -7 -13
-15z"/>
<path d="M907 703 c-12 -18 21 -23 35 -5 11 15 11 16 -4 4 -13 -10 -17 -10
-20 0 -3 8 -6 9 -11 1z"/>
<path d="M2620 660 c-9 -6 -10 -10 -3 -10 6 0 15 5 18 10 8 12 4 12 -15 0z"/>
<path d="M2230 656 c0 -2 7 -6 15 -10 8 -3 15 -1 15 4 0 6 -7 10 -15 10 -8 0
-15 -2 -15 -4z"/>
<path d="M3630 610 c0 -5 5 -10 11 -10 5 0 7 5 4 10 -3 6 -8 10 -11 10 -2 0
-4 -4 -4 -10z"/>
<path d="M1544 578 c-16 -26 -11 -45 13 -45 25 0 30 11 11 23 -7 5 -8 3 -3 -6
6 -9 4 -11 -4 -5 -9 5 -10 10 -2 18 6 6 11 15 11 19 0 12 -18 9 -26 -4z"/>
<path d="M3907 568 c-20 -7 -26 -15 -22 -28 3 -10 1 -21 -4 -25 -7 -4 -8 1 -4
12 6 17 5 16 -16 -1 -16 -15 -18 -21 -9 -28 10 -6 9 -8 -3 -8 -13 0 -16 -9
-14 -39 3 -46 17 -73 50 -99 20 -16 25 -29 25 -66 l0 -46 -55 0 -55 0 0 48 c0
26 5 53 12 60 9 9 1 12 -37 12 -46 0 -47 -1 -32 -18 13 -14 17 -38 17 -102 0
-64 -4 -88 -17 -102 -15 -17 -14 -18 32 -18 38 0 46 3 37 12 -7 7 -12 32 -12
56 l0 43 53 -3 52 -3 3 -40 c3 -29 -1 -43 -14 -52 -15 -11 -11 -13 31 -13 38
0 46 3 37 12 -8 8 -12 46 -12 105 0 87 1 93 21 93 11 0 18 4 15 9 -6 9 60 8
68 0 2 -2 20 -37 40 -76 40 -80 45 -117 19 -132 -14 -8 -7 -10 32 -11 38 0 46
3 37 12 -20 20 -13 76 18 138 16 32 34 61 40 65 15 9 12 25 -5 25 -11 0 -14 7
-10 25 3 14 7 36 10 50 5 24 -26 70 -39 57 -3 -3 -6 -1 -6 5 0 11 -16 11 -67
-2 -18 -4 -31 -10 -29 -14 2 -3 -14 -7 -36 -8 -21 -1 -45 -7 -53 -13 -10 -9
-22 -7 -47 6 -18 10 -36 17 -40 16 -3 -1 -5 14 -4 33 2 23 -1 33 -8 29 -6 -3
0 4 14 15 28 23 27 24 -13 9z m-4 -63 c-3 -9 -8 -14 -10 -11 -3 3 -2 9 2 15 9
16 15 13 8 -4z m247 -19 c0 -2 -7 -7 -16 -10 -8 -3 -12 -2 -9 4 6 10 25 14 25
6z m-229 -113 c13 -16 12 -17 -3 -4 -17 13 -22 21 -14 21 2 0 10 -8 17 -17z
m259 7 c3 -1 9 -2 14 -1 5 1 5 -6 2 -15 -4 -10 -1 -21 6 -25 10 -6 7 -19 -12
-54 -14 -26 -28 -49 -32 -51 -4 -3 -19 19 -34 48 -17 33 -22 54 -15 56 19 6
12 22 -11 23 -18 1 -19 2 -5 6 9 2 15 8 13 12 -4 6 61 7 74 1z"/>
<path d="M954 538 c3 -10 -4 -34 -15 -53 -29 -49 -27 -100 4 -133 25 -27 25
-27 6 -51 -23 -28 -24 -59 -3 -89 10 -14 13 -33 9 -50 -4 -20 0 -36 14 -53 10
-14 21 -35 23 -49 1 -13 10 -25 18 -27 13 -4 13 -3 0 6 -9 6 -10 11 -3 11 11
0 12 17 2 35 -4 6 -5 24 -4 40 1 17 -4 39 -12 49 -10 17 -10 23 1 35 8 9 16
40 18 68 3 47 1 52 -14 47 -10 -3 -18 -1 -18 4 0 5 10 12 22 15 18 5 19 8 8
21 -10 13 -10 16 2 16 8 0 20 -6 28 -12 8 -7 6 -3 -5 10 -11 13 -20 41 -21 64
-1 28 -8 47 -21 58 -11 8 -25 24 -32 35 -10 15 -11 16 -7 3z"/>
<path d="M1050 546 c0 -2 8 -10 18 -17 15 -13 16 -12 3 4 -13 16 -21 21 -21
13z"/>
<path d="M2448 362 c-43 -2 -78 -7 -78 -12 0 -6 5 -10 10 -10 14 0 13 -193 -1
-207 -8 -8 10 -12 71 -15 89 -3 100 3 100 54 -1 22 -1 22 -16 -4 -15 -28 -47
-43 -81 -36 -14 2 -19 14 -21 51 l-3 47 33 0 c19 0 40 -6 47 -12 11 -11 12 -8
6 17 -8 35 -16 45 -22 28 -3 -7 -18 -13 -34 -13 -28 0 -29 2 -29 45 l0 45 39
0 c30 0 44 -6 55 -22 21 -29 30 -17 14 18 -13 29 -14 29 -90 26z"/>
<path d="M1413 346 c14 -11 17 -29 17 -109 0 -81 -3 -98 -17 -106 -14 -8 -7
-10 32 -11 38 0 46 3 37 12 -7 7 -12 31 -12 55 l0 43 55 0 55 0 0 -45 c0 -31
-5 -47 -17 -54 -14 -8 -7 -10 32 -11 38 0 46 3 37 12 -15 15 -17 208 -2 208 6
0 10 5 10 10 0 6 -18 10 -40 10 -22 0 -40 -4 -40 -10 0 -5 5 -10 10 -10 6 0
10 -22 10 -50 l0 -50 -55 0 -55 0 0 48 c0 26 5 53 12 60 9 9 1 12 -37 12 -44
-1 -48 -2 -32 -14z"/>
<path d="M1769 345 c-53 -29 -69 -129 -29 -185 27 -38 81 -54 133 -39 50 13
77 57 77 123 0 41 -5 53 -34 82 -28 28 -41 34 -77 34 -24 -1 -56 -7 -70 -15z
m85 -6 c53 -25 77 -148 36 -189 -56 -56 -130 6 -130 110 0 75 36 105 94 79z"/>
<path d="M2041 347 c15 -11 16 -25 8 -107 -7 -71 -13 -98 -26 -108 -14 -10
-11 -12 22 -12 30 0 36 3 27 12 -13 13 -15 61 -4 122 l7 39 33 -82 c19 -45 37
-79 42 -76 5 3 21 37 36 75 15 39 31 70 35 70 5 0 9 -30 11 -67 2 -51 -1 -71
-12 -80 -12 -10 -6 -12 34 -13 46 0 48 1 34 18 -10 11 -17 48 -21 106 -5 77
-4 91 11 103 15 12 13 13 -18 11 -33 -3 -35 -6 -65 -80 -16 -43 -32 -78 -35
-78 -3 0 -19 35 -36 78 -30 73 -34 77 -65 80 -29 2 -32 1 -18 -11z"/>
<path d="M2674 349 c-49 -24 -70 -119 -40 -177 37 -71 157 -76 201 -8 35 54
15 155 -36 181 -32 17 -94 19 -125 4z m86 -12 c35 -27 50 -62 50 -114 0 -40
-5 -58 -20 -73 -56 -56 -130 7 -130 112 0 68 56 110 100 75z"/>
<path d="M2930 351 c0 -6 5 -11 10 -11 15 0 13 -193 -2 -208 -9 -9 -1 -12 38
-12 38 1 45 3 32 11 -11 6 -18 22 -18 42 0 31 1 32 44 32 55 1 86 25 86 70 0
52 -36 77 -120 83 -48 3 -70 1 -70 -7z m132 -28 c20 -18 24 -73 6 -91 -7 -7
-27 -12 -45 -12 l-33 0 0 60 c0 58 1 60 27 60 14 0 35 -7 45 -17z"/>
<path d="M3253 346 c8 -20 -52 -198 -71 -213 -13 -11 -10 -13 22 -13 33 0 37
2 26 15 -7 9 -10 25 -6 40 6 24 10 26 53 23 41 -3 48 -6 56 -32 7 -21 6 -30
-4 -37 -9 -6 1 -9 30 -9 33 0 41 3 34 13 -17 21 -75 206 -68 217 4 6 -10 10
-35 10 -33 0 -41 -3 -37 -14z m50 -106 c2 -19 -3 -26 -22 -28 -37 -6 -42 9
-23 67 l17 53 13 -33 c8 -18 15 -45 15 -59z"/>
<path d="M3466 345 c-3 -9 -6 -26 -6 -38 1 -20 2 -20 16 6 10 18 23 27 39 27
25 0 25 0 25 -98 0 -63 -4 -102 -12 -110 -9 -9 -2 -12 32 -12 34 0 41 3 32 12
-8 8 -12 47 -12 110 0 98 0 98 25 98 16 0 29 -9 40 -27 l15 -28 -2 35 -3 35
-91 3 c-77 2 -93 0 -98 -13z"/>
<path d="M1050 225 c-11 -13 -10 -14 4 -9 9 3 16 10 16 15 0 13 -6 11 -20 -6z"/>
</g>
</svg>
